<svg width="194" height="48" viewBox="0 0 194 48" fill="none" xmlns="http://www.w3.org/2000/svg">
<path d="M82.0069 23.3186C85.7357 23.3186 87.5864 22.5212 87.5864 19.5549C87.5864 16.6136 85.7357 15.816 82.0069 15.816H79.3669V23.3186H82.0069ZM76.2097 30.0486V14.4948C76.2097 13.6971 76.6996 13.2485 77.5703 13.2485H81.5441C87.9946 13.2485 90.798 14.8686 90.798 19.6047C90.798 24.3406 87.9946 25.9607 81.5714 25.9607H79.3669V30.0486C79.3669 30.8463 78.8768 31.2949 78.0058 31.2949H77.5703C76.6996 31.2949 76.2097 30.8463 76.2097 30.0486Z" fill="#383084"/>
<path d="M92.997 30.0486V18.2835C92.997 17.4859 93.4779 17.0372 94.3329 17.0372H94.6802C95.5352 17.0372 96.016 17.4859 96.016 18.2835V30.0486C96.016 30.8463 95.5352 31.2949 94.6802 31.2949H94.3329C93.4779 31.2949 92.997 30.8463 92.997 30.0486ZM92.7402 13.6225C92.7402 12.6752 93.5021 12.1269 94.5366 12.1269C95.4893 12.1269 96.3329 12.6752 96.3329 13.6225C96.3329 14.5697 95.4893 15.118 94.5366 15.118C93.5021 15.118 92.7402 14.5697 92.7402 13.6225Z" fill="#383084"/>
<path d="M106.448 30.0486V14.4948C106.448 13.6971 106.938 13.2485 107.809 13.2485H108.245C109.116 13.2485 109.606 13.6971 109.606 14.4948V20.9008H118.968V14.4948C118.968 13.6971 119.458 13.2485 120.329 13.2485H120.765C121.636 13.2485 122.126 13.6971 122.126 14.4948V30.0486C122.126 30.8463 121.636 31.2949 120.765 31.2949H120.329C119.458 31.2949 118.968 30.8463 118.968 30.0486V23.3932H109.606V30.0486C109.606 30.8463 109.116 31.2949 108.245 31.2949H107.809C106.938 31.2949 106.448 30.8463 106.448 30.0486Z" fill="#383084"/>
<path d="M136.959 22.6947C136.741 20.4264 135.054 18.9806 132.305 18.9806C129.692 18.9806 127.869 20.2269 127.515 22.6947H136.959ZM124.385 24.1651C124.385 19.7783 127.596 16.7621 132.25 16.7621C136.769 16.7621 139.654 19.5291 139.844 23.6416C139.871 24.4643 139.354 24.8882 138.483 24.8882H127.433C127.542 27.6547 129.42 29.2252 132.441 29.2252C134.128 29.2252 135.19 28.8264 136.17 28.0287C136.769 27.5551 137.15 27.1562 137.912 27.3307L138.238 27.4056C139.191 27.6299 139.382 28.1036 138.864 28.8016C137.503 30.646 135.299 31.5684 132.387 31.5684C127.542 31.5684 124.385 28.6271 124.385 24.1651Z" fill="#383084"/>
<path d="M153.997 24.1644C153.997 21.0486 152.011 19.1293 149.126 19.1293C146.268 19.1293 144.308 21.0238 144.308 24.1644C144.308 27.33 146.268 29.2245 149.18 29.2245C152.038 29.2245 153.997 27.3052 153.997 24.1644ZM141.26 24.1644C141.26 19.2542 144.526 16.7614 148.391 16.7614C150.84 16.7614 153.018 17.858 153.916 19.8273V18.2818C153.916 17.4842 154.406 17.0355 155.277 17.0355H155.603C156.474 17.0355 156.964 17.4842 156.964 18.2818V30.0221C156.964 30.8198 156.474 31.2684 155.603 31.2684H155.277C154.406 31.2684 153.916 30.8198 153.916 30.0221V28.5765C153.045 30.4956 150.84 31.6172 148.418 31.6172C144.553 31.6172 141.26 29.0998 141.26 24.1644Z" fill="#383084"/>
<path d="M160.148 30.0486V13.6473C160.148 12.8499 160.638 12.401 161.51 12.401H161.863C162.734 12.401 163.224 12.8499 163.224 13.6473V30.0486C163.224 30.8463 162.734 31.2949 161.863 31.2949H161.51C160.638 31.2949 160.148 30.8463 160.148 30.0486Z" fill="#383084"/>
<path d="M172.995 31.4941C168.994 31.4941 167.171 29.9737 167.171 25.6116V19.2056H166.273C165.402 19.2056 164.912 18.8067 164.912 18.109C164.912 17.411 165.32 17.0372 166.055 17.0372H167.171V15.5415C167.171 14.7937 167.579 14.345 168.368 14.1955L168.75 14.1207C169.702 13.9214 170.246 14.345 170.246 15.2175V17.0372H173.485C174.356 17.0372 174.846 17.411 174.846 18.109C174.846 18.8067 174.356 19.2056 173.485 19.2056H170.246V25.2876C170.246 28.2289 171.09 29.2506 173.458 29.2506C174.302 29.2506 174.851 29.5224 174.927 30.1978C175.014 30.9579 174.65 31.394 173.785 31.4691C173.512 31.4911 173.24 31.4937 172.995 31.4937V31.4941Z" fill="#383084"/>
<path d="M176.833 30.0486V13.6473C176.833 12.8499 177.323 12.401 178.194 12.401H178.521C179.392 12.401 179.881 12.8499 179.881 13.6473V19.6295C180.507 18.2089 182.195 16.7879 184.971 16.7879C189.081 16.7879 191.258 18.8321 191.258 23.568V30.0486C191.258 30.8463 190.768 31.2949 189.897 31.2949H189.571C188.7 31.2949 188.21 30.8463 188.21 30.0486V23.7923C188.21 20.6019 186.904 19.2061 184.018 19.2061C181.161 19.2061 179.881 20.9008 179.881 24.1163V30.0486C179.881 30.8463 179.392 31.2949 178.521 31.2949H178.194C177.323 31.2949 176.833 30.8463 176.833 30.0486Z" fill="#383084"/>
<path d="M45.1463 6.99094C48.4695 6.99094 51.1636 9.45829 51.1636 12.5018V31.4052C51.1636 34.4487 48.4695 36.916 45.1463 36.916C41.823 36.916 39.1289 34.4487 39.1289 31.4052V12.5018C39.1289 9.45829 41.823 6.99094 45.1463 6.99094Z" fill="#58C0C8"/>
<path d="M13.8536 12.5009C13.8536 15.5444 11.1595 18.0117 7.83622 18.0117C4.51273 18.0117 1.8186 15.5444 1.8186 12.5009C1.8186 9.45735 4.51273 6.99 7.83622 6.99C11.1595 6.99 13.8536 9.45735 13.8536 12.5009Z" fill="#AB9FB8"/>
<path d="M17.9016 15.8022C17.9016 12.0239 20.4991 8.80208 24.1474 7.54987C23.3497 7.19213 22.4535 6.99094 21.5054 6.99094C18.1822 6.99094 15.488 9.45806 15.488 12.5018V31.4052C15.488 34.4487 18.1822 36.916 21.5054 36.916C24.8289 36.916 27.5228 34.4487 27.5228 31.4052V24.6135C22.2093 24.6135 17.9016 20.6687 17.9016 15.8022Z" fill="#694EAA"/>
<path d="M27.2491 6.91626C26.0613 6.91626 24.9242 7.11461 23.8735 7.47518C25.8723 8.3713 27.2491 10.2519 27.2491 12.4271V24.5391C32.5628 24.5391 36.8702 20.594 36.8702 15.7275C36.8702 10.8613 32.5628 6.91626 27.2491 6.91626Z" fill="#318AA8"/>
<path d="M24.1474 7.5494C20.499 8.80161 17.9016 12.0234 17.9016 15.8018C17.9016 20.6682 22.2093 24.6133 27.523 24.6133V12.5013C27.523 10.3258 26.1462 8.44552 24.1474 7.5494Z" fill="#6552A3"/>
<path d="M24.1474 7.5494C20.499 8.80161 17.9016 12.0234 17.9016 15.8018C17.9016 20.6682 22.2093 24.6133 27.523 24.6133V12.5013C27.523 10.3258 26.1462 8.44552 24.1474 7.5494Z" fill="#143890"/>
<path d="M51.1639 12.5009C51.1639 15.5444 48.4698 18.0117 45.1465 18.0117C41.823 18.0117 39.1289 15.5444 39.1289 12.5009C39.1289 9.45735 41.823 6.99 45.1465 6.99C48.4698 6.99 51.1639 9.45735 51.1639 12.5009Z" fill="#187870"/>
<path d="M64.8328 12.5009C64.8328 15.5444 62.1387 18.0117 58.8155 18.0117C55.492 18.0117 52.7979 15.5444 52.7979 12.5009C52.7979 9.45735 55.492 6.99 58.8155 6.99C62.1387 6.99 64.8328 9.45735 64.8328 12.5009Z" fill="#C8CEB6"/>
</svg>
